Coordinates
version=1
nRows=17
nColumns=40
inDegrees=yes

Units are S.I. units (second, meters, Newtons, ...)
Angles are in degrees.

endheader
time	pelvis_tilt	pelvis_list	pelvis_rotation	pelvis_tx	pelvis_ty	pelvis_tz	hip_flexion_r	hip_adduction_r	hip_rotation_r	knee_angle_r	knee_angle_r_beta	ankle_angle_r	subtalar_angle_r	mtp_angle_r	hip_flexion_l	hip_adduction_l	hip_rotation_l	knee_angle_l	knee_angle_l_beta	ankle_angle_l	subtalar_angle_l	mtp_angle_l	lumbar_extension	lumbar_bending	lumbar_rotation	arm_flex_r	arm_add_r	arm_rot_r	elbow_flex_r	pro_sup_r	wrist_flex_r	wrist_dev_r	arm_flex_l	arm_add_l	arm_rot_l	elbow_flex_l	pro_sup_l	wrist_flex_l	wrist_dev_l
     21.22000000	     -3.46282429	     -4.39476001	      3.15651181	      0.93974812	      0.93169965	      0.43327151	     12.60885505	      2.30673935	    -16.34960668	     17.27235611	     17.27235611	     10.53050580	      4.23039109	     -2.36285718	     27.41840884	    -14.33010421	     -1.63888275	     52.52477819	     52.52477819	     11.88892583	    -18.38463769	     12.13270310	    -11.04151805	      6.19421757	      4.29792731	     21.81750628	    -17.24751039	     -1.87709056	     52.85972909	     45.75762053	      0.00000000	      0.00000000	      3.75996800	     -6.62175460	    -12.39304518	     28.82497744	     45.58473140	      0.00000000	      0.00000000
     21.22264286	     -3.42223666	     -4.41558701	      3.20364672	      0.93963709	      0.93186478	      0.43347546	     12.43058947	      2.40350382	    -16.18999878	     17.11336496	     17.11336496	     10.52221347	      3.94249032	     -2.28482638	     27.41851970	    -14.41883270	     -1.75274358	     52.03455796	     52.03455796	     11.64250584	    -18.41580209	     11.58275995	    -11.10806165	      6.21883710	      4.36781843	     21.94772550	    -17.38579160	     -1.93752490	     53.34294380	     45.72691190	      0.00000000	      0.00000000	      3.35862568	     -6.61165532	    -12.19053437	     29.29468541	     45.56216290	      0.00000000	      0.00000000
     21.22528571	     -3.37575256	     -4.42935884	      3.26947092	      0.93949374	      0.93198907	      0.43358714	     12.29706158	      2.44900896	    -16.16036958	     17.06711336	     17.06711336	     10.54431753	      3.78845149	     -2.26934516	     27.42732139	    -14.48141292	     -1.84003111	     51.56319058	     51.56319058	     11.44256209	    -18.43798473	     11.11532884	    -11.17501233	      6.26682154	      4.41863160	     22.16416174	    -17.50577318	     -1.99350086	     53.78044849	     45.69964764	      0.00000000	      0.00000000	      2.98953671	     -6.57770584	    -11.98852840	     29.64863857	     45.53837649	      0.00000000	      0.00000000
     21.22792857	     -3.42612466	     -4.34258687	      3.32438289	      0.93933823	      0.93198859	      0.43355699	     12.31729375	      2.25156677	    -16.57790042	     17.18742680	     17.18742680	     10.68798810	      4.46581986	     -2.31200781	     27.57522329	    -14.37882111	     -1.89077250	     51.21181593	     51.21181593	     11.82006819	    -18.37583898	     12.18589535	    -11.06206983	      6.19121379	      4.33231774	     22.59490392	    -17.43517077	     -2.01861491	     53.46021367	     45.69367475	      0.00000000	      0.00000000	      3.15041308	     -6.48476692	    -12.16349221	     28.28112526	     45.60023163	      0.00000000	      0.00000000
     21.23057143	     -3.37709728	     -4.37774175	      3.37066008	      0.93922358	      0.93216727	      0.43378470	     12.12827387	      2.36617797	    -16.44730527	     17.02613299	     17.02613299	     10.68881008	      4.21818939	     -2.21983358	     27.55649138	    -14.48363084	     -2.00447646	     50.68915645	     50.68915645	     11.57722313	    -18.39631422	     11.70100802	    -11.13493245	      6.22122827	      4.42452211	     22.73105623	    -17.52444497	     -2.06522191	     53.93375439	     45.66634659	      0.00000000	      0.00000000	      2.77441646	     -6.51095896	    -12.03280942	     28.76757015	     45.58707827	      0.00000000	      0.00000000
     21.23321429	     -3.34206191	     -4.32027519	      3.41228634	      0.93910952	      0.93226026	      0.43376352	     12.05117065	      2.24349892	    -16.71200852	     17.12512256	     17.12512256	     10.81907509	      4.60903382	     -2.15340254	     27.57827335	    -14.43596029	     -2.08834838	     50.27598533	     50.27598533	     11.83568633	    -18.36946254	     12.42815679	    -11.12130840	      6.22077161	      4.44314756	     23.08638395	    -17.53897310	     -2.10923463	     53.93352094	     45.65239494	      0.00000000	      0.00000000	      2.67954499	     -6.41390545	    -12.27684622	     28.02515806	     45.65711954	      0.00000000	      0.00000000
     21.23585714	     -3.44773609	     -4.36788575	      3.36557523	      0.93880528	      0.93189336	      0.43411038	     12.33123841	      2.32254633	    -16.30829359	     17.51322168	     17.51322168	     10.98558057	      3.98626334	     -2.25275189	     27.77565234	    -14.62379027	     -2.32224160	     49.85355424	     49.85355424	     11.50791473	    -18.32769651	     11.48055508	    -11.07147921	      6.22942716	      4.66193301	     23.10025342	    -17.74699520	     -2.16191700	     54.69431364	     45.61816197	      0.00000000	      0.00000000	      2.08069444	     -6.41654452	    -11.96226432	     29.00026805	     45.61364740	      0.00000000	      0.00000000
     21.23850000	     -3.30587727	     -4.39541108	      3.52705775	      0.93867239	      0.93235217	      0.43403717	     11.90897790	      2.41845734	    -16.43475891	     17.10653499	     17.10653499	     10.87521207	      3.93229900	     -2.12217387	     27.62254241	    -14.60618987	     -2.26950132	     49.19975125	     49.19975125	     11.23878717	    -18.45450572	     11.15320903	    -11.27153202	      6.31961369	      4.59727263	     23.41988474	    -17.87764353	     -2.22779579	     54.98579106	     45.60212283	      0.00000000	      0.00000000	      1.88774217	     -6.35101829	    -11.84288886	     29.26536914	     45.59413233	      0.00000000	      0.00000000
     21.24114286	     -3.30341544	     -4.38891936	      3.59785524	      0.93863901	      0.93250587	      0.43408339	     11.66520214	      2.40313942	    -16.78034582	     16.80225097	     16.80225097	     10.87677042	      4.56748032	     -2.08946324	     27.63957722	    -14.62385024	     -2.35979876	     48.67418177	     48.67418177	     11.33836076	    -18.36828968	     11.42995578	    -11.20788260	      6.29633175	      4.45010239	     23.73127853	    -17.70517720	     -2.21540130	     54.97468592	     45.59199185	      0.00000000	      0.00000000	      1.74586461	     -6.38586782	    -11.85839356	     28.68687349	     45.60331877	      0.00000000	      0.00000000
     21.24378571	     -3.33334008	     -4.32753379	      3.65860761	      0.93836069	      0.93247513	      0.43407093	     11.73555523	      2.26409861	    -16.99460280	     17.03279116	     17.03279116	     11.10218324	      4.83364557	     -1.93205680	     27.76438952	    -14.53868130	     -2.37907206	     48.26567531	     48.26567531	     11.70980489	    -18.33735560	     12.66492815	    -11.15780400	      6.25309513	      4.49812693	     24.09459506	    -17.74795712	     -2.22713041	     54.78563641	     45.58745063	      0.00000000	      0.00000000	      1.95389457	     -6.29140862	    -12.24645099	     27.65117229	     45.70545581	      0.00000000	      0.00000000
     21.24642857	     -3.28502856	     -4.36530101	      3.70857339	      0.93824456	      0.93258926	      0.43416709	     11.55514145	      2.36508659	    -16.90164104	     16.88815819	     16.88815819	     11.08997918	      4.62432392	     -1.88256051	     27.71714409	    -14.62858568	     -2.49329957	     47.68128414	     47.68128414	     11.47805370	    -18.33346356	     12.12809631	    -11.23040155	      6.30933020	      4.53782818	     24.25698499	    -17.85745957	     -2.28252500	     55.23950497	     45.56607196	      0.00000000	      0.00000000	      1.54744294	     -6.27585323	    -12.12274882	     28.12322875	     45.68706216	      0.00000000	      0.00000000
     21.24907143	     -3.37545322	     -4.40272723	      3.64791857	      0.93798613	      0.93221141	      0.43438550	     11.83591572	      2.40326718	    -16.57452757	     17.32811112	     17.32811112	     11.23848034	      4.04375325	     -2.02917631	     27.85467865	    -14.77887204	     -2.72576551	     47.19818441	     47.19818441	     11.18885286	    -18.33813544	     11.25799875	    -11.15950373	      6.36136102	      4.76392181	     24.31236633	    -18.08328248	     -2.34508716	     55.92841689	     45.53871977	      0.00000000	      0.00000000	      0.89575666	     -6.25758525	    -11.82926214	     28.97941817	     45.64150678	      0.00000000	      0.00000000
     21.25171429	     -3.22582757	     -4.41009485	      3.83033711	      0.93793981	      0.93271002	      0.43430091	     11.28799674	      2.46642669	    -16.92514202	     16.72627962	     16.72627962	     11.11664120	      4.53273289	     -1.90255140	     27.67544127	    -14.73842130	     -2.67328764	     46.51342999	     46.51342999	     11.10106363	    -18.36115441	     11.43265008	    -11.29271501	      6.37852108	      4.56115688	     24.68583229	    -17.98796632	     -2.35700721	     55.91858266	     45.53210151	      0.00000000	      0.00000000	      0.87856460	     -6.26388057	    -11.84002447	     28.61440396	     45.64210127	      0.00000000	      0.00000000
     21.25435714	     -3.33007239	     -4.44014275	      3.75932716	      0.93766070	      0.93228117	      0.43450907	     11.60593363	      2.48370537	    -16.61273743	     17.21237391	     17.21237391	     11.29282649	      3.98328470	     -2.06865587	     27.83688468	    -14.88362177	     -2.92047640	     46.05314662	     46.05314662	     10.85630372	    -18.34097199	     10.67098125	    -11.21612034	      6.43628437	      4.79446157	     24.74978710	    -18.19518051	     -2.41201507	     56.55024834	     45.50771190	      0.00000000	      0.00000000	      0.26742800	     -6.26196356	    -11.56172465	     29.38290251	     45.60029277	      0.00000000	      0.00000000
     21.25700000	     -3.26197403	     -4.34796540	      3.95128147	      0.93748177	      0.93262377	      0.43424706	     11.29208393	      2.29042059	    -17.36198165	     16.96060538	     16.96060538	     11.41042139	      5.09237031	     -1.82868447	     27.82115962	    -14.66772617	     -2.78049766	     45.53471243	     45.53471243	     11.42470233	    -18.27822469	     12.68057440	    -11.22209114	      6.37427110	      4.55547314	     25.37585481	    -18.02521599	     -2.35249258	     55.77679049	     45.52399112	      0.00000000	      0.00000000	      0.94396819	     -6.17602324	    -12.04762358	     27.22291374	     45.71291392	      0.00000000	      0.00000000
     21.25964286	     -3.22785661	     -4.39161493	      4.00796202	      0.93735028	      0.93267150	      0.43434829	     11.13656010	      2.39979496	    -17.25222806	     16.83090759	     16.83090759	     11.40744768	      4.84930799	     -1.78246097	     27.79161624	    -14.74598374	     -2.86444766	     44.94100573	     44.94100573	     11.19158064	    -18.29461850	     12.26203910	    -11.26719908	      6.43217680	      4.59338788	     25.52871041	    -18.09613278	     -2.40125176	     56.21072608	     45.50554129	      0.00000000	      0.00000000	      0.55101635	     -6.17495605	    -11.96979116	     27.64357860	     45.70161755	      0.00000000	      0.00000000
     21.26228571	     -3.22164999	     -4.39110629	      4.08281595	      0.93714647	      0.93262320	      0.43430065	     11.10124262	      2.34532028	    -17.48404114	     16.92752467	     16.92752467	     11.54868856	      5.16441269	     -1.77212807	     27.83368292	    -14.74391432	     -2.90539113	     44.42861589	     44.42861589	     11.26737999	    -18.26015247	     12.69873608	    -11.25443963	      6.46371045	      4.53274116	     25.85701978	    -18.09859421	     -2.42360042	     56.30855734	     45.49806685	      0.00000000	      0.00000000	      0.47814496	     -6.12919569	    -12.15759163	     27.15558586	     45.75366562	      0.00000000	      0.00000000
